

<svg xmlns:xlink="http://www.w3.org/1999/xlink" class="contact-circle" width="158" height="158" viewBox="0 0 158 158" fill="#212121" xmlns="http://www.w3.org/2000/svg" style="transform: translate3d(0px, 0px, 0px) rotate(194.891deg);">
                                    <mask id="path-1-outside-1_111_1563" maskUnits="userSpaceOnUse" x="0" y="0" width="158" height="158" fill="black">
                                        <rect fill="#FFFFFF" width="158" height="158"></rect>
                                        <path d="M71.7698 3.48825L67.8686 3.6992L67.7523 1.54808L77.8881 1L78.0044 3.15113L74.1032 3.36208L74.7075 14.537L72.374 14.6632L71.7698 3.48825Z"></path>
                                        <path d="M59.7304 17.542C58.4774 17.8969 57.312 17.9361 56.2343 17.6594C55.165 17.3677 54.2334 16.803 53.4396 15.9653C52.6541 15.1126 52.0706 14.0128 51.6892 12.6662C51.3111 11.3312 51.2387 10.093 51.472 8.95171C51.717 7.80707 52.2359 6.82523 53.0285 6.00618C53.8212 5.18713 54.8381 4.60181 56.0794 4.25023C57.0982 3.96166 58.0647 3.89031 58.9789 4.03618C59.893 4.18205 60.7098 4.51996 61.4291 5.0499C62.1451 5.56813 62.7044 6.2699 63.107 7.15522L60.7356 7.82688C60.3008 7.14044 59.721 6.67852 58.9959 6.44114C58.2793 6.18872 57.4877 6.18524 56.6211 6.43069C55.8482 6.6496 55.2205 7.02348 54.7378 7.55235C54.2668 8.07789 53.9677 8.71919 53.8406 9.47623C53.7135 10.2333 53.7809 11.0744 54.043 11.9995C54.2951 12.8895 54.6754 13.6293 55.1839 14.2189C55.6892 14.7969 56.2818 15.1919 56.9617 15.4041C57.65 15.6013 58.3806 15.5904 59.1535 15.3715C60.0318 15.1228 60.7216 14.6997 61.2228 14.1023C61.7358 13.5017 61.9965 12.8143 62.0049 12.0403L64.3411 11.3786C64.4293 12.315 64.2943 13.2007 63.9363 14.0358C63.59 14.8676 63.0542 15.5886 62.3289 16.1988C61.6153 16.8057 60.7492 17.2535 59.7304 17.542Z"></path>
                                        <path fill-rule="evenodd" clip-rule="evenodd" d="M40.3437 26.6153L42.4451 25.4358L41.8902 22.2091L46.2364 19.7696L48.6858 21.9329L50.835 20.7266L40.1 11.4481L38.0144 12.6187L40.3437 26.6153ZM41.5141 20.1591L40.7425 15.6514C40.7063 15.4624 40.6647 15.2764 40.6177 15.0934C40.5755 14.8938 40.5352 14.7349 40.4969 14.6169C40.573 14.7277 40.6823 14.8478 40.8247 14.9772C40.9671 15.1066 41.1043 15.239 41.2361 15.3744L44.6822 18.3809L41.5141 20.1591Z"></path>
                                        <path d="M23.4771 26.904L26.405 24.3173L33.8147 32.7042L35.566 31.157L28.1563 22.7701L31.0842 20.1833L29.6578 18.5689L22.0508 25.2896L23.4771 26.904Z"></path>
                                        <path d="M22.0905 47.3672L23.4368 45.5021L15.7652 39.9643L27.1126 40.4099L28.459 38.5447L17.6381 30.7337L16.2918 32.5989L23.9746 38.1447L12.6267 37.6762L11.2696 39.5562L22.0905 47.3672Z"></path>
                                        <path fill-rule="evenodd" clip-rule="evenodd" d="M14.1666 48.7535C15.4224 49.2518 16.4357 49.9484 17.2067 50.8436C17.9663 51.7342 18.4381 52.7397 18.622 53.8602C18.806 54.9807 18.6623 56.1349 18.191 57.3228C17.7242 58.4994 17.0397 59.4324 16.1376 60.122C15.2355 60.8116 14.2026 61.2202 13.039 61.3478C11.8799 61.464 10.6725 61.273 9.41674 60.7748C8.14967 60.2721 7.13632 59.5754 6.37669 58.6848C5.60575 57.7897 5.12607 56.7875 4.93763 55.6783C4.75369 54.5578 4.89737 53.4037 5.36867 52.2158C5.83997 51.0279 6.52443 50.0948 7.42206 49.4165C8.32417 48.727 9.35703 48.3184 10.5206 48.1908C11.6842 48.0632 12.8996 48.2508 14.1666 48.7535ZM13.2644 51.0275C12.382 50.6774 11.5578 50.5271 10.7917 50.5767C10.0257 50.6263 9.35735 50.8587 8.78671 51.2739C8.20475 51.6846 7.76116 52.2746 7.45594 53.0439C7.1552 53.8019 7.07363 54.5355 7.21122 55.2448C7.34199 55.9383 7.6692 56.5657 8.19285 57.127C8.71651 57.6883 9.41955 58.144 10.302 58.4941C11.1844 58.8442 12.0143 58.9967 12.7916 58.9516C13.5577 58.902 14.226 58.6696 14.7967 58.2544C15.3718 57.8279 15.8097 57.2357 16.1105 56.4777C16.4157 55.7084 16.5029 54.977 16.3721 54.2835C16.2301 53.5855 15.8972 52.9559 15.3735 52.3946C14.8386 51.8288 14.1355 51.3731 13.2644 51.0275Z"></path>
                                        <path d="M13.4453 75.6911C14.126 74.8109 14.5513 73.7253 14.7215 72.4342C14.8598 71.3844 14.7915 70.4117 14.5167 69.5161C14.2434 68.6085 13.7934 67.8311 13.1667 67.1838C12.5415 66.5245 11.7815 66.0499 10.8867 65.7601L10.5695 68.1674C11.277 68.4816 11.805 68.9931 12.1536 69.702C12.5037 70.3988 12.6191 71.1996 12.4999 72.1046C12.395 72.901 12.1157 73.5763 11.6622 74.1303C11.1981 74.6707 10.6008 75.0585 9.87003 75.2937C9.12723 75.5273 8.2973 75.5837 7.38023 75.4628C6.42696 75.3372 5.62788 75.0662 4.983 74.6498C4.33813 74.2334 3.8676 73.7049 3.57144 73.0643C3.27686 72.4117 3.18204 71.6872 3.28697 70.8908C3.40461 69.9979 3.72118 69.2723 4.23666 68.7141C4.74167 68.1423 5.39541 67.7926 6.19789 67.6651L6.51983 65.2216C5.54748 65.2408 4.68163 65.4766 3.92229 65.929C3.15087 66.3798 2.51725 66.996 2.02142 67.7778C1.52558 68.5595 1.20851 69.4753 1.07019 70.5251C0.901672 71.8042 1.03659 72.9697 1.47495 74.0219C1.91331 75.074 2.60955 75.9391 3.56368 76.6173C4.5194 77.2833 5.68507 77.707 7.06067 77.8882C8.44835 78.0711 9.6892 77.9706 10.7832 77.5869C11.8668 77.1895 12.7541 76.5576 13.4453 75.6911Z"></path>
                                        <path d="M144.85 82.3053C144.179 83.1932 143.766 84.2837 143.611 85.5767C143.485 86.628 143.564 87.5999 143.85 88.4922C144.133 89.3966 144.592 90.1688 145.226 90.8088C145.859 91.4609 146.625 91.9267 147.523 92.2061L147.812 89.7953C147.101 89.4893 146.567 88.9839 146.21 88.2791C145.852 87.5864 145.728 86.7869 145.836 85.8806C145.932 85.0831 146.204 84.4047 146.651 83.8454C147.109 83.2997 147.701 82.9051 148.429 82.6615C149.169 82.4193 149.999 82.3534 150.917 82.4636C151.872 82.5782 152.674 82.84 153.324 83.249C153.973 83.658 154.45 84.181 154.753 84.8181C155.055 85.4673 155.158 86.1906 155.063 86.9882C154.955 87.8824 154.647 88.6116 154.138 89.1757C153.64 89.7533 152.99 90.1105 152.189 90.2472L151.895 92.6943C152.867 92.6639 153.731 92.4181 154.485 91.957C155.251 91.4973 155.877 90.8738 156.364 90.0864C156.851 89.299 157.157 88.3797 157.284 87.3283C157.437 86.0474 157.289 84.8835 156.839 83.8364C156.388 82.7894 155.682 81.9324 154.72 81.2653C153.757 80.6103 152.586 80.2001 151.209 80.0347C149.819 79.8679 148.579 79.9826 147.49 80.3789C146.411 80.7888 145.531 81.4309 144.85 82.3053Z"></path>
                                        <path fill-rule="evenodd" clip-rule="evenodd" d="M141.322 107.321C142.103 108.207 143.124 108.892 144.385 109.376C145.658 109.865 146.876 110.039 148.038 109.898C149.2 109.758 150.228 109.337 151.122 108.638C152.012 107.949 152.686 107.009 153.144 105.816C153.602 104.622 153.733 103.467 153.536 102.348C153.335 101.241 152.844 100.245 152.063 99.3583C151.294 98.4762 150.273 97.791 149 97.3025C147.739 96.8185 146.529 96.6411 145.371 96.7703C144.209 96.911 143.181 97.3311 142.287 98.0308C141.393 98.7305 140.719 99.6712 140.265 100.853C139.807 102.046 139.676 103.202 139.873 104.32C140.07 105.438 140.553 106.439 141.322 107.321ZM147.74 107.515C146.974 107.574 146.148 107.433 145.262 107.092C144.387 106.757 143.679 106.309 143.138 105.749C142.608 105.194 142.268 104.568 142.118 103.872C141.979 103.18 142.058 102.447 142.355 101.675C142.647 100.913 143.078 100.316 143.649 99.8832C144.215 99.4617 144.88 99.2218 145.646 99.1635C146.423 99.1097 147.254 99.2529 148.14 99.593C149.027 99.9332 149.735 100.381 150.265 100.936C150.795 101.492 151.129 102.115 151.268 102.807C151.413 103.515 151.34 104.25 151.048 105.011C150.751 105.784 150.314 106.379 149.737 106.796C149.171 107.217 148.505 107.457 147.74 107.515Z"></path>
                                        <path d="M135.087 112.771L136.413 110.891L147.319 118.583L145.982 120.477L134.63 120.133L142.373 125.595L141.047 127.475L130.141 119.783L131.467 117.903L142.819 118.224L135.087 112.771Z"></path>
                                        <path d="M132.393 133.895L135.293 131.276L136.736 132.875L129.203 139.678L127.759 138.079L130.659 135.461L123.158 127.155L124.892 125.589L132.393 133.895Z"></path>
                                        <path fill-rule="evenodd" clip-rule="evenodd" d="M116.243 132.986L118.331 131.784L120.815 145.754L118.743 146.947L107.905 137.788L110.041 136.558L112.514 138.694L116.833 136.207L116.243 132.986ZM118.053 142.751L117.232 138.252L114.084 140.066L117.563 143.034C117.696 143.168 117.835 143.299 117.979 143.426C118.123 143.554 118.233 143.673 118.311 143.783C118.271 143.666 118.229 143.507 118.184 143.308C118.136 143.126 118.092 142.94 118.053 142.751Z"></path>
                                        <path d="M102.474 140.887C101.394 140.623 100.229 140.675 98.98 141.044C97.9645 141.344 97.1035 141.802 96.3968 142.417C95.6785 143.035 95.1509 143.762 94.8141 144.598C94.4656 145.437 94.3407 146.324 94.4395 147.26L96.7681 146.572C96.7677 145.798 97.0206 145.107 97.5267 144.501C98.0211 143.898 98.706 143.467 99.5814 143.208C100.352 142.981 101.082 142.961 101.773 143.151C102.455 143.355 103.052 143.743 103.564 144.316C104.079 144.899 104.468 145.635 104.73 146.522C105.002 147.444 105.079 148.284 104.961 149.043C104.842 149.801 104.551 150.446 104.086 150.977C103.609 151.511 102.986 151.892 102.215 152.12C101.351 152.375 100.56 152.38 99.8405 152.136C99.1128 151.907 98.5277 151.452 98.0851 150.77L95.7216 151.469C96.1341 152.35 96.7014 153.045 97.4232 153.555C98.1486 154.077 98.9691 154.405 99.8848 154.541C100.801 154.676 101.766 154.594 102.782 154.294C104.019 153.928 105.029 153.331 105.812 152.503C106.596 151.675 107.103 150.688 107.335 149.54C107.556 148.396 107.469 147.159 107.076 145.829C106.679 144.486 106.083 143.393 105.288 142.55C104.485 141.721 103.547 141.167 102.474 140.887Z"></path>
                                        <path d="M90.9659 154.922L87.0674 155.178L86.3339 144.011L84.0021 144.164L84.7355 155.331L80.8371 155.587L80.9782 157.737L91.107 157.072L90.9659 154.922Z"></path>
                                        <path d="M56.816 154.51L57.3558 152.425L63.0822 153.907L63.9925 150.39L59.1851 149.146L59.7112 147.113L64.5185 148.357L65.8862 143.073L68.1485 143.658L64.8048 156.578L56.816 154.51Z"></path>
                                        <path fill-rule="evenodd" clip-rule="evenodd" d="M41.7794 140.713C42.4055 139.516 43.2038 138.581 44.1743 137.907C45.1391 137.244 46.1883 136.88 47.3218 136.813C48.4554 136.747 49.5884 137.01 50.7208 137.602C51.8424 138.189 52.6992 138.967 53.2912 139.936C53.8832 140.904 54.1821 141.974 54.188 143.145C54.183 144.31 53.8675 145.491 53.2413 146.688C52.6095 147.896 51.8112 148.831 50.8464 149.494C49.876 150.168 48.8294 150.54 47.7066 150.612C46.573 150.679 45.4401 150.416 44.3076 149.824C43.1752 149.231 42.3184 148.453 41.7372 147.49C41.1452 146.521 40.8463 145.451 40.8404 144.281C40.8346 143.11 41.1476 141.921 41.7794 140.713ZM43.9471 141.847C43.5071 142.688 43.272 143.492 43.2416 144.259C43.2113 145.026 43.3729 145.715 43.7265 146.326C44.0744 146.948 44.6151 147.45 45.3484 147.834C46.071 148.212 46.7922 148.369 47.5119 148.306C48.2153 148.248 48.8733 147.988 49.486 147.526C50.0987 147.063 50.6251 146.411 51.0651 145.57C51.5051 144.729 51.7431 143.919 51.7791 143.142C51.8094 142.375 51.6478 141.686 51.2942 141.075C50.9299 140.459 50.3864 139.961 49.6638 139.583C48.9304 139.2 48.2121 139.037 47.5088 139.095C46.7998 139.164 46.139 139.429 45.5262 139.892C44.9079 140.365 44.3815 141.017 43.9471 141.847Z"></path>
                                        <path fill-rule="evenodd" clip-rule="evenodd" d="M41.2345 132.555L39.4776 131.014L36.1913 134.761L34.0364 132.871L35.6207 127.632L33.6991 125.946L31.9957 131.737C31.1842 131.463 30.4229 131.426 29.7116 131.628C28.9832 131.831 28.3261 132.267 27.7402 132.935C26.8735 133.923 26.5196 134.972 26.6787 136.083C26.8285 137.186 27.4708 138.235 28.6054 139.23L32.4349 142.589L41.2345 132.555ZM34.831 136.312L32.0503 139.483L29.9777 137.665C29.4196 137.176 29.1053 136.657 29.0349 136.11C28.9566 135.572 29.1381 135.051 29.5794 134.548C30.0208 134.044 30.5215 133.787 31.0814 133.777C31.6413 133.766 32.2003 134.005 32.7585 134.495L34.831 136.312Z"></path>
                                        <path d="M28.937 121.087L30.2146 122.956L19.1974 130.487L17.9198 128.618L24.2599 119.065L13.0568 121.505L11.7586 119.606L22.7758 112.074L24.0534 113.943L19.2758 117.209C18.894 117.47 18.569 117.685 18.3009 117.853C18.0328 118.022 17.7948 118.17 17.587 118.297C17.3792 118.425 17.1645 118.542 16.9429 118.649L25.8976 116.641L27.1134 118.419L21.9962 126.009C22.2934 125.732 22.6948 125.413 23.2004 125.053C23.6991 124.682 24.295 124.26 24.9883 123.786L28.937 121.087Z"></path>
                                        <path d="M102.327 4.5021L94.3702 2.31354L90.8307 15.1811L93.0839 15.8009L94.5316 10.5377L99.3196 11.8547L99.8764 9.83038L95.0885 8.51337L96.052 5.01043L101.755 6.57922L102.327 4.5021Z"></path>
                                        <path fill-rule="evenodd" clip-rule="evenodd" d="M114.441 21.0639C115.419 20.4011 116.228 19.4746 116.867 18.2845C117.512 17.0837 117.839 15.898 117.846 14.7275C117.853 13.5569 117.566 12.4839 116.985 11.5085C116.414 10.5388 115.566 9.75148 114.44 9.14665C113.314 8.54181 112.185 8.2663 111.05 8.32011C109.927 8.37968 108.876 8.74088 107.898 9.40372C106.926 10.0558 106.118 10.9823 105.472 12.1831C104.833 13.3732 104.504 14.5507 104.486 15.7154C104.479 16.886 104.766 17.959 105.348 18.9345C105.929 19.9099 106.777 20.6972 107.892 21.2963C109.018 21.9011 110.148 22.1766 111.282 22.1228C112.416 22.069 113.469 21.716 114.441 21.0639ZM115.445 14.7223C115.406 15.4889 115.162 16.2904 114.712 17.1267C114.269 17.9522 113.735 18.5982 113.112 19.0645C112.494 19.5201 111.83 19.7783 111.12 19.8392C110.416 19.8893 109.7 19.7185 108.971 19.3268C108.252 18.9408 107.715 18.4377 107.357 17.8173C107.01 17.2027 106.856 16.512 106.895 15.7454C106.94 14.968 107.187 14.1611 107.636 13.3249C108.085 12.4886 108.619 11.8426 109.237 11.387C109.855 10.9314 110.515 10.6786 111.219 10.6285C111.94 10.5734 112.659 10.7388 113.377 11.1248C114.107 11.5165 114.642 12.025 114.983 12.6504C115.329 13.265 115.483 13.9556 115.445 14.7223Z"></path>
                                        <path fill-rule="evenodd" clip-rule="evenodd" d="M119.139 27.9736L117.399 26.4137L126.308 16.4769L130.101 19.877C131.224 20.8844 131.855 21.9403 131.993 23.0446C132.14 24.1571 131.774 25.2027 130.897 26.1814C130.304 26.843 129.642 27.2712 128.911 27.4662C128.198 27.6603 127.437 27.6156 126.629 27.3322L124.862 33.1042L122.959 31.3981L124.601 26.1759L122.466 24.2626L119.139 27.9736ZM126.659 19.5864L123.843 22.7265L125.896 24.5667C126.449 25.0623 127.005 25.3078 127.565 25.3031C128.125 25.2984 128.629 25.0468 129.076 24.5484C129.522 24.0499 129.71 23.5312 129.637 22.9922C129.573 22.4441 129.264 21.9222 128.711 21.4266L126.659 19.5864Z"></path>
                                        <path d="M128.472 36.2443L129.729 38.127L133.707 35.4712C134.406 35.0049 135.006 34.5893 135.509 34.2244C136.019 33.8696 136.423 33.5554 136.724 33.2818L131.523 40.8146L132.719 42.6062L141.696 40.6965C141.473 40.8013 141.257 40.9162 141.048 41.0412C140.839 41.1663 140.599 41.3116 140.329 41.4771C140.059 41.6427 139.732 41.8539 139.347 42.1107L134.534 45.3241L135.791 47.2069L146.89 39.7968L145.613 37.8837L134.384 40.2L140.828 30.717L139.571 28.8342L128.472 36.2443Z"></path>
                                        <path d="M149.151 60.6197L149.446 59.3215L150.63 59.611L150.387 60.8652C150.315 61.2006 150.235 61.4741 150.147 61.6856C150.073 61.8957 149.979 62.1081 149.867 62.3227C150.084 62.2461 150.307 62.1749 150.538 62.1092C150.77 62.0559 151.047 62.0097 151.369 61.9706L152.687 61.8104L152.834 63.0172L151.516 63.1774C151.194 63.2165 150.907 63.2326 150.655 63.2255C150.417 63.2293 150.189 63.2193 149.973 63.1953C150.119 63.366 150.261 63.5497 150.398 63.7466C150.535 63.9435 150.678 64.1899 150.827 64.4858L151.382 65.6431L150.285 66.2286L149.686 65.0201C149.552 64.7475 149.446 64.4904 149.366 64.2488C149.299 64.0058 149.234 63.7813 149.171 63.5754C149.034 63.793 148.895 63.9858 148.752 64.1539C148.61 64.3344 148.419 64.5209 148.179 64.7134L147.155 65.5914L146.346 64.6723L147.315 63.801C147.563 63.5698 147.785 63.3858 147.982 63.2488C148.192 63.1103 148.391 62.9919 148.58 62.8936C148.337 62.8603 148.097 62.7953 147.859 62.6986C147.623 62.6142 147.383 62.5051 147.141 62.3713L145.985 61.7015L146.553 60.634L147.757 61.2413C148.04 61.3954 148.271 61.5431 148.452 61.6845C148.632 61.8258 148.814 61.9796 148.998 62.1457C149.003 61.8812 149.01 61.6292 149.019 61.3895C149.041 61.1606 149.085 60.904 149.151 60.6197Z"></path>
                                        <path d="M9.4457 93.3215L9.15124 94.6197C9.08531 94.9041 9.04112 95.1606 9.01869 95.3895C9.01013 95.6292 9.00308 95.8812 8.99754 96.1457C8.81406 95.9796 8.63208 95.8258 8.45161 95.6845C8.27114 95.5431 8.03965 95.3954 7.75715 95.2413L6.55287 94.634L5.98547 95.7015L7.14082 96.3713C7.38318 96.5051 7.62252 96.6142 7.85886 96.6986C8.09671 96.7953 8.33698 96.8603 8.57969 96.8936C8.39066 96.9919 8.19152 97.1103 7.98225 97.2488C7.78536 97.3858 7.56279 97.5698 7.31454 97.801L6.34646 98.6723L7.15527 99.5914L8.17906 98.7134C8.41944 98.5209 8.61032 98.3344 8.75169 98.1539C8.89455 97.9858 9.03441 97.793 9.17126 97.5754C9.23396 97.7813 9.29893 98.0058 9.36614 98.2488C9.44574 98.4904 9.55235 98.7475 9.68597 99.0201L10.285 100.229L11.382 99.6431L10.8269 98.4858C10.6779 98.1899 10.5349 97.9435 10.3979 97.7466C10.2609 97.5497 10.1193 97.366 9.97294 97.1953C10.1894 97.2193 10.4167 97.2293 10.6549 97.2255C10.907 97.2326 11.1939 97.2165 11.5158 97.1774L12.834 97.0172L12.6874 95.8104L11.3691 95.9706C11.0473 96.0097 10.7703 96.0559 10.5381 96.1092C10.3074 96.1749 10.0837 96.2461 9.86689 96.3227C9.97899 96.1081 10.0725 95.8957 10.1475 95.6856C10.2348 95.4741 10.3146 95.2006 10.3869 94.8652L10.6302 93.611L9.4457 93.3215Z"></path>
                                    </mask>
                                    <path d="M71.7698 3.48825L67.8686 3.6992L67.7523 1.54808L77.8881 1L78.0044 3.15113L74.1032 3.36208L74.7075 14.537L72.374 14.6632L71.7698 3.48825Z" fill="#FFF480"></path>
                                    <path d="M59.7304 17.542C58.4774 17.8969 57.312 17.9361 56.2343 17.6594C55.165 17.3677 54.2334 16.803 53.4396 15.9653C52.6541 15.1126 52.0706 14.0128 51.6892 12.6662C51.3111 11.3312 51.2387 10.093 51.472 8.95171C51.717 7.80707 52.2359 6.82523 53.0285 6.00618C53.8212 5.18713 54.8381 4.60181 56.0794 4.25023C57.0982 3.96166 58.0647 3.89031 58.9789 4.03618C59.893 4.18205 60.7098 4.51996 61.4291 5.0499C62.1451 5.56813 62.7044 6.2699 63.107 7.15522L60.7356 7.82688C60.3008 7.14044 59.721 6.67852 58.9959 6.44114C58.2793 6.18872 57.4877 6.18524 56.6211 6.43069C55.8482 6.6496 55.2205 7.02348 54.7378 7.55235C54.2668 8.07789 53.9677 8.71919 53.8406 9.47623C53.7135 10.2333 53.7809 11.0744 54.043 11.9995C54.2951 12.8895 54.6754 13.6293 55.1839 14.2189C55.6892 14.7969 56.2818 15.1919 56.9617 15.4041C57.65 15.6013 58.3806 15.5904 59.1535 15.3715C60.0318 15.1228 60.7216 14.6997 61.2228 14.1023C61.7358 13.5017 61.9965 12.8143 62.0049 12.0403L64.3411 11.3786C64.4293 12.315 64.2943 13.2007 63.9363 14.0358C63.59 14.8676 63.0542 15.5886 62.3289 16.1988C61.6153 16.8057 60.7492 17.2535 59.7304 17.542Z" fill="#FFF480"></path>
                                    <path fill-rule="evenodd" clip-rule="evenodd" d="M40.3437 26.6153L42.4451 25.4358L41.8902 22.2091L46.2364 19.7696L48.6858 21.9329L50.835 20.7266L40.1 11.4481L38.0144 12.6187L40.3437 26.6153ZM41.5141 20.1591L40.7425 15.6514C40.7063 15.4624 40.6647 15.2764 40.6177 15.0934C40.5755 14.8938 40.5352 14.7349 40.4969 14.6169C40.573 14.7277 40.6823 14.8478 40.8247 14.9772C40.9671 15.1066 41.1043 15.239 41.2361 15.3744L44.6822 18.3809L41.5141 20.1591Z" fill="#FFF480"></path>
                                    <path d="M23.4771 26.904L26.405 24.3173L33.8147 32.7042L35.566 31.157L28.1563 22.7701L31.0842 20.1833L29.6578 18.5689L22.0508 25.2896L23.4771 26.904Z" fill="#FFF480"></path>
                                    <path d="M22.0905 47.3672L23.4368 45.5021L15.7652 39.9643L27.1126 40.4099L28.459 38.5447L17.6381 30.7337L16.2918 32.5989L23.9746 38.1447L12.6267 37.6762L11.2696 39.5562L22.0905 47.3672Z" fill="#FFF480"></path>
                                    <path fill-rule="evenodd" clip-rule="evenodd" d="M14.1666 48.7535C15.4224 49.2518 16.4357 49.9484 17.2067 50.8436C17.9663 51.7342 18.4381 52.7397 18.622 53.8602C18.806 54.9807 18.6623 56.1349 18.191 57.3228C17.7242 58.4994 17.0397 59.4324 16.1376 60.122C15.2355 60.8116 14.2026 61.2202 13.039 61.3478C11.8799 61.464 10.6725 61.273 9.41674 60.7748C8.14967 60.2721 7.13632 59.5754 6.37669 58.6848C5.60575 57.7897 5.12607 56.7875 4.93763 55.6783C4.75369 54.5578 4.89737 53.4037 5.36867 52.2158C5.83997 51.0279 6.52443 50.0948 7.42206 49.4165C8.32417 48.727 9.35703 48.3184 10.5206 48.1908C11.6842 48.0632 12.8996 48.2508 14.1666 48.7535ZM13.2644 51.0275C12.382 50.6774 11.5578 50.5271 10.7917 50.5767C10.0257 50.6263 9.35735 50.8587 8.78671 51.2739C8.20475 51.6846 7.76116 52.2746 7.45594 53.0439C7.1552 53.8019 7.07363 54.5355 7.21122 55.2448C7.34199 55.9383 7.6692 56.5657 8.19285 57.127C8.71651 57.6883 9.41955 58.144 10.302 58.4941C11.1844 58.8442 12.0143 58.9967 12.7916 58.9516C13.5577 58.902 14.226 58.6696 14.7967 58.2544C15.3718 57.8279 15.8097 57.2357 16.1105 56.4777C16.4157 55.7084 16.5029 54.977 16.3721 54.2835C16.2301 53.5855 15.8972 52.9559 15.3735 52.3946C14.8386 51.8288 14.1355 51.3731 13.2644 51.0275Z" fill="#212121"></path>
                                    <path d="M13.4453 75.6911C14.126 74.8109 14.5513 73.7253 14.7215 72.4342C14.8598 71.3844 14.7915 70.4117 14.5167 69.5161C14.2434 68.6085 13.7934 67.8311 13.1667 67.1838C12.5415 66.5245 11.7815 66.0499 10.8867 65.7601L10.5695 68.1674C11.277 68.4816 11.805 68.9931 12.1536 69.702C12.5037 70.3988 12.6191 71.1996 12.4999 72.1046C12.395 72.901 12.1157 73.5763 11.6622 74.1303C11.1981 74.6707 10.6008 75.0585 9.87003 75.2937C9.12723 75.5273 8.2973 75.5837 7.38023 75.4628C6.42696 75.3372 5.62788 75.0662 4.983 74.6498C4.33813 74.2334 3.8676 73.7049 3.57144 73.0643C3.27686 72.4117 3.18204 71.6872 3.28697 70.8908C3.40461 69.9979 3.72118 69.2723 4.23666 68.7141C4.74167 68.1423 5.39541 67.7926 6.19789 67.6651L6.51983 65.2216C5.54748 65.2408 4.68163 65.4766 3.92229 65.929C3.15087 66.3798 2.51725 66.996 2.02142 67.7778C1.52558 68.5595 1.20851 69.4753 1.07019 70.5251C0.901672 71.8042 1.03659 72.9697 1.47495 74.0219C1.91331 75.074 2.60955 75.9391 3.56368 76.6173C4.5194 77.2833 5.68507 77.707 7.06067 77.8882C8.44835 78.0711 9.6892 77.9706 10.7832 77.5869C11.8668 77.1895 12.7541 76.5576 13.4453 75.6911Z" fill="#212121"></path>
                                    <path d="M144.85 82.3053C144.179 83.1932 143.766 84.2837 143.611 85.5767C143.485 86.628 143.564 87.5999 143.85 88.4922C144.133 89.3966 144.592 90.1688 145.226 90.8088C145.859 91.4609 146.625 91.9267 147.523 92.2061L147.812 89.7953C147.101 89.4893 146.567 88.9839 146.21 88.2791C145.852 87.5864 145.728 86.7869 145.836 85.8806C145.932 85.0831 146.204 84.4047 146.651 83.8454C147.109 83.2997 147.701 82.9051 148.429 82.6615C149.169 82.4193 149.999 82.3534 150.917 82.4636C151.872 82.5782 152.674 82.84 153.324 83.249C153.973 83.658 154.45 84.181 154.753 84.8181C155.055 85.4673 155.158 86.1906 155.063 86.9882C154.955 87.8824 154.647 88.6116 154.138 89.1757C153.64 89.7533 152.99 90.1105 152.189 90.2472L151.895 92.6943C152.867 92.6639 153.731 92.4181 154.485 91.957C155.251 91.4973 155.877 90.8738 156.364 90.0864C156.851 89.299 157.157 88.3797 157.284 87.3283C157.437 86.0474 157.289 84.8835 156.839 83.8364C156.388 82.7894 155.682 81.9324 154.72 81.2653C153.757 80.6103 152.586 80.2001 151.209 80.0347C149.819 79.8679 148.579 79.9826 147.49 80.3789C146.411 80.7888 145.531 81.4309 144.85 82.3053Z" fill="#212121"></path>
                                    <path fill-rule="evenodd" clip-rule="evenodd" d="M141.322 107.321C142.103 108.207 143.124 108.892 144.385 109.376C145.658 109.865 146.876 110.039 148.038 109.898C149.2 109.758 150.228 109.337 151.122 108.638C152.012 107.949 152.686 107.009 153.144 105.816C153.602 104.622 153.733 103.467 153.536 102.348C153.335 101.241 152.844 100.245 152.063 99.3583C151.294 98.4762 150.273 97.791 149 97.3025C147.739 96.8185 146.529 96.6411 145.371 96.7703C144.209 96.911 143.181 97.3311 142.287 98.0308C141.393 98.7305 140.719 99.6712 140.265 100.853C139.807 102.046 139.676 103.202 139.873 104.32C140.07 105.438 140.553 106.439 141.322 107.321ZM147.74 107.515C146.974 107.574 146.148 107.433 145.262 107.092C144.387 106.757 143.679 106.309 143.138 105.749C142.608 105.194 142.268 104.568 142.118 103.872C141.979 103.18 142.058 102.447 142.355 101.675C142.647 100.913 143.078 100.316 143.649 99.8832C144.215 99.4617 144.88 99.2218 145.646 99.1635C146.423 99.1097 147.254 99.2529 148.14 99.593C149.027 99.9332 149.735 100.381 150.265 100.936C150.795 101.492 151.129 102.115 151.268 102.807C151.413 103.515 151.34 104.25 151.048 105.011C150.751 105.784 150.314 106.379 149.737 106.796C149.171 107.217 148.505 107.457 147.74 107.515Z" fill="#212121"></path>
                                    <path d="M135.087 112.771L136.413 110.891L147.319 118.583L145.982 120.477L134.63 120.133L142.373 125.595L141.047 127.475L130.141 119.783L131.467 117.903L142.819 118.224L135.087 112.771Z" fill="#212121"></path>
                                    <path d="M132.393 133.895L135.293 131.276L136.736 132.875L129.203 139.678L127.759 138.079L130.659 135.461L123.158 127.155L124.892 125.589L132.393 133.895Z" fill="#212121"></path>
                                    <path fill-rule="evenodd" clip-rule="evenodd" d="M116.243 132.986L118.331 131.784L120.815 145.754L118.743 146.947L107.905 137.788L110.041 136.558L112.514 138.694L116.833 136.207L116.243 132.986ZM118.053 142.751L117.232 138.252L114.084 140.066L117.563 143.034C117.696 143.168 117.835 143.299 117.979 143.426C118.123 143.554 118.233 143.673 118.311 143.783C118.271 143.666 118.229 143.507 118.184 143.308C118.136 143.126 118.092 142.94 118.053 142.751Z" fill="#212121"></path>
                                    <path d="M102.474 140.887C101.394 140.623 100.229 140.675 98.98 141.044C97.9645 141.344 97.1035 141.802 96.3968 142.417C95.6785 143.035 95.1509 143.762 94.8141 144.598C94.4656 145.437 94.3407 146.324 94.4395 147.26L96.7681 146.572C96.7677 145.798 97.0206 145.107 97.5267 144.501C98.0211 143.898 98.706 143.467 99.5814 143.208C100.352 142.981 101.082 142.961 101.773 143.151C102.455 143.355 103.052 143.743 103.564 144.316C104.079 144.899 104.468 145.635 104.73 146.522C105.002 147.444 105.079 148.284 104.961 149.043C104.842 149.801 104.551 150.446 104.086 150.977C103.609 151.511 102.986 151.892 102.215 152.12C101.351 152.375 100.56 152.38 99.8405 152.136C99.1128 151.907 98.5277 151.452 98.0851 150.77L95.7216 151.469C96.1341 152.35 96.7014 153.045 97.4232 153.555C98.1486 154.077 98.9691 154.405 99.8848 154.541C100.801 154.676 101.766 154.594 102.782 154.294C104.019 153.928 105.029 153.331 105.812 152.503C106.596 151.675 107.103 150.688 107.335 149.54C107.556 148.396 107.469 147.159 107.076 145.829C106.679 144.486 106.083 143.393 105.288 142.55C104.485 141.721 103.547 141.167 102.474 140.887Z" fill="#212121"></path>
                                    <path d="M90.9659 154.922L87.0674 155.178L86.3339 144.011L84.0021 144.164L84.7355 155.331L80.8371 155.587L80.9782 157.737L91.107 157.072L90.9659 154.922Z" fill="#212121"></path>
                                    <path d="M56.816 154.51L57.3558 152.425L63.0822 153.907L63.9925 150.39L59.1851 149.146L59.7112 147.113L64.5185 148.357L65.8862 143.073L68.1485 143.658L64.8048 156.578L56.816 154.51Z" fill="#212121"></path>
                                    <path fill-rule="evenodd" clip-rule="evenodd" d="M41.7794 140.713C42.4055 139.516 43.2038 138.581 44.1743 137.907C45.1391 137.244 46.1883 136.88 47.3218 136.813C48.4554 136.747 49.5884 137.01 50.7208 137.602C51.8424 138.189 52.6992 138.967 53.2912 139.936C53.8832 140.904 54.1821 141.974 54.188 143.145C54.183 144.31 53.8675 145.491 53.2413 146.688C52.6095 147.896 51.8112 148.831 50.8464 149.494C49.876 150.168 48.8294 150.54 47.7066 150.612C46.573 150.679 45.4401 150.416 44.3076 149.824C43.1752 149.231 42.3184 148.453 41.7372 147.49C41.1452 146.521 40.8463 145.451 40.8404 144.281C40.8346 143.11 41.1476 141.921 41.7794 140.713ZM43.9471 141.847C43.5071 142.688 43.272 143.492 43.2416 144.259C43.2113 145.026 43.3729 145.715 43.7265 146.326C44.0744 146.948 44.6151 147.45 45.3484 147.834C46.071 148.212 46.7922 148.369 47.5119 148.306C48.2153 148.248 48.8733 147.988 49.486 147.526C50.0987 147.063 50.6251 146.411 51.0651 145.57C51.5051 144.729 51.7431 143.919 51.7791 143.142C51.8094 142.375 51.6478 141.686 51.2942 141.075C50.9299 140.459 50.3864 139.961 49.6638 139.583C48.9304 139.2 48.2121 139.037 47.5088 139.095C46.7998 139.164 46.139 139.429 45.5262 139.892C44.9079 140.365 44.3815 141.017 43.9471 141.847Z" fill="#212121"></path>
                                    <path fill-rule="evenodd" clip-rule="evenodd" d="M41.2345 132.555L39.4776 131.014L36.1913 134.761L34.0364 132.871L35.6207 127.632L33.6991 125.946L31.9957 131.737C31.1842 131.463 30.4229 131.426 29.7116 131.628C28.9832 131.831 28.3261 132.267 27.7402 132.935C26.8735 133.923 26.5196 134.972 26.6787 136.083C26.8285 137.186 27.4708 138.235 28.6054 139.23L32.4349 142.589L41.2345 132.555ZM34.831 136.312L32.0503 139.483L29.9777 137.665C29.4196 137.176 29.1053 136.657 29.0349 136.11C28.9566 135.572 29.1381 135.051 29.5794 134.548C30.0208 134.044 30.5215 133.787 31.0814 133.777C31.6413 133.766 32.2003 134.005 32.7585 134.495L34.831 136.312Z" fill="#212121"></path>
                                    <path d="M28.937 121.087L30.2146 122.956L19.1974 130.487L17.9198 128.618L24.2599 119.065L13.0568 121.505L11.7586 119.606L22.7758 112.074L24.0534 113.943L19.2758 117.209C18.894 117.47 18.569 117.685 18.3009 117.853C18.0328 118.022 17.7948 118.17 17.587 118.297C17.3792 118.425 17.1645 118.542 16.9429 118.649L25.8976 116.641L27.1134 118.419L21.9962 126.009C22.2934 125.732 22.6948 125.413 23.2004 125.053C23.6991 124.682 24.295 124.26 24.9883 123.786L28.937 121.087Z" fill="#212121"></path>
                                    <path d="M102.327 4.5021L94.3702 2.31354L90.8307 15.1811L93.0839 15.8009L94.5316 10.5377L99.3196 11.8547L99.8764 9.83038L95.0885 8.51337L96.052 5.01043L101.755 6.57922L102.327 4.5021Z" fill="#212121"></path>
                                    <path fill-rule="evenodd" clip-rule="evenodd" d="M114.441 21.0639C115.419 20.4011 116.228 19.4746 116.867 18.2845C117.512 17.0837 117.839 15.898 117.846 14.7275C117.853 13.5569 117.566 12.4839 116.985 11.5085C116.414 10.5388 115.566 9.75148 114.44 9.14665C113.314 8.54181 112.185 8.2663 111.05 8.32011C109.927 8.37968 108.876 8.74088 107.898 9.40372C106.926 10.0558 106.118 10.9823 105.472 12.1831C104.833 13.3732 104.504 14.5507 104.486 15.7154C104.479 16.886 104.766 17.959 105.348 18.9345C105.929 19.9099 106.777 20.6972 107.892 21.2963C109.018 21.9011 110.148 22.1766 111.282 22.1228C112.416 22.069 113.469 21.716 114.441 21.0639ZM115.445 14.7223C115.406 15.4889 115.162 16.2904 114.712 17.1267C114.269 17.9522 113.735 18.5982 113.112 19.0645C112.494 19.5201 111.83 19.7783 111.12 19.8392C110.416 19.8893 109.7 19.7185 108.971 19.3268C108.252 18.9408 107.715 18.4377 107.357 17.8173C107.01 17.2027 106.856 16.512 106.895 15.7454C106.94 14.968 107.187 14.1611 107.636 13.3249C108.085 12.4886 108.619 11.8426 109.237 11.387C109.855 10.9314 110.515 10.6786 111.219 10.6285C111.94 10.5734 112.659 10.7388 113.377 11.1248C114.107 11.5165 114.642 12.025 114.983 12.6504C115.329 13.265 115.483 13.9556 115.445 14.7223Z" fill="#212121"></path>
                                    <path fill-rule="evenodd" clip-rule="evenodd" d="M119.139 27.9736L117.399 26.4137L126.308 16.4769L130.101 19.877C131.224 20.8844 131.855 21.9403 131.993 23.0446C132.14 24.1571 131.774 25.2027 130.897 26.1814C130.304 26.843 129.642 27.2712 128.911 27.4662C128.198 27.6603 127.437 27.6156 126.629 27.3322L124.862 33.1042L122.959 31.3981L124.601 26.1759L122.466 24.2626L119.139 27.9736ZM126.659 19.5864L123.843 22.7265L125.896 24.5667C126.449 25.0623 127.005 25.3078 127.565 25.3031C128.125 25.2984 128.629 25.0468 129.076 24.5484C129.522 24.0499 129.71 23.5312 129.637 22.9922C129.573 22.4441 129.264 21.9222 128.711 21.4266L126.659 19.5864Z" fill="#212121"></path>
                                    <path d="M128.472 36.2443L129.729 38.127L133.707 35.4712C134.406 35.0049 135.006 34.5893 135.509 34.2244C136.019 33.8696 136.423 33.5554 136.724 33.2818L131.523 40.8146L132.719 42.6062L141.696 40.6965C141.473 40.8013 141.257 40.9162 141.048 41.0412C140.839 41.1663 140.599 41.3116 140.329 41.4771C140.059 41.6427 139.732 41.8539 139.347 42.1107L134.534 45.3241L135.791 47.2069L146.89 39.7968L145.613 37.8837L134.384 40.2L140.828 30.717L139.571 28.8342L128.472 36.2443Z" fill="#212121"></path>
                                    <path d="M149.151 60.6197L149.446 59.3215L150.63 59.611L150.387 60.8652C150.315 61.2006 150.235 61.4741 150.147 61.6856C150.073 61.8957 149.979 62.1081 149.867 62.3227C150.084 62.2461 150.307 62.1749 150.538 62.1092C150.77 62.0559 151.047 62.0097 151.369 61.9706L152.687 61.8104L152.834 63.0172L151.516 63.1774C151.194 63.2165 150.907 63.2326 150.655 63.2255C150.417 63.2293 150.189 63.2193 149.973 63.1953C150.119 63.366 150.261 63.5497 150.398 63.7466C150.535 63.9435 150.678 64.1899 150.827 64.4858L151.382 65.6431L150.285 66.2286L149.686 65.0201C149.552 64.7475 149.446 64.4904 149.366 64.2488C149.299 64.0058 149.234 63.7813 149.171 63.5754C149.034 63.793 148.895 63.9858 148.752 64.1539C148.61 64.3344 148.419 64.5209 148.179 64.7134L147.155 65.5914L146.346 64.6723L147.315 63.801C147.563 63.5698 147.785 63.3858 147.982 63.2488C148.192 63.1103 148.391 62.9919 148.58 62.8936C148.337 62.8603 148.097 62.7953 147.859 62.6986C147.623 62.6142 147.383 62.5051 147.141 62.3713L145.985 61.7015L146.553 60.634L147.757 61.2413C148.04 61.3954 148.271 61.5431 148.452 61.6845C148.632 61.8258 148.814 61.9796 148.998 62.1457C149.003 61.8812 149.01 61.6292 149.019 61.3895C149.041 61.1606 149.085 60.904 149.151 60.6197Z" fill="#212121"></path>
                                    <path d="M9.4457 93.3215L9.15124 94.6197C9.08531 94.9041 9.04112 95.1606 9.01869 95.3895C9.01013 95.6292 9.00308 95.8812 8.99754 96.1457C8.81406 95.9796 8.63208 95.8258 8.45161 95.6845C8.27114 95.5431 8.03965 95.3954 7.75715 95.2413L6.55287 94.634L5.98547 95.7015L7.14082 96.3713C7.38318 96.5051 7.62252 96.6142 7.85886 96.6986C8.09671 96.7953 8.33698 96.8603 8.57969 96.8936C8.39066 96.9919 8.19152 97.1103 7.98225 97.2488C7.78536 97.3858 7.56279 97.5698 7.31454 97.801L6.34646 98.6723L7.15527 99.5914L8.17906 98.7134C8.41944 98.5209 8.61032 98.3344 8.75169 98.1539C8.89455 97.9858 9.03441 97.793 9.17126 97.5754C9.23396 97.7813 9.29893 98.0058 9.36614 98.2488C9.44574 98.4904 9.55235 98.7475 9.68597 99.0201L10.285 100.229L11.382 99.6431L10.8269 98.4858C10.6779 98.1899 10.5349 97.9435 10.3979 97.7466C10.2609 97.5497 10.1193 97.366 9.97294 97.1953C10.1894 97.2193 10.4167 97.2293 10.6549 97.2255C10.907 97.2326 11.1939 97.2165 11.5158 97.1774L12.834 97.0172L12.6874 95.8104L11.3691 95.9706C11.0473 96.0097 10.7703 96.0559 10.5381 96.1092C10.3074 96.1749 10.0837 96.2461 9.86689 96.3227C9.97899 96.1081 10.0725 95.8957 10.1475 95.6856C10.2348 95.4741 10.3146 95.2006 10.3869 94.8652L10.6302 93.611L9.4457 93.3215Z" fill="#212121"></path>
                                    <path d="M71.7698 3.48825L67.8686 3.6992L67.7523 1.54808L77.8881 1L78.0044 3.15113L74.1032 3.36208L74.7075 14.537L72.374 14.6632L71.7698 3.48825Z"  fill="#212121"></path>
                                    <path d="M59.7304 17.542C58.4774 17.8969 57.312 17.9361 56.2343 17.6594C55.165 17.3677 54.2334 16.803 53.4396 15.9653C52.6541 15.1126 52.0706 14.0128 51.6892 12.6662C51.3111 11.3312 51.2387 10.093 51.472 8.95171C51.717 7.80707 52.2359 6.82523 53.0285 6.00618C53.8212 5.18713 54.8381 4.60181 56.0794 4.25023C57.0982 3.96166 58.0647 3.89031 58.9789 4.03618C59.893 4.18205 60.7098 4.51996 61.4291 5.0499C62.1451 5.56813 62.7044 6.2699 63.107 7.15522L60.7356 7.82688C60.3008 7.14044 59.721 6.67852 58.9959 6.44114C58.2793 6.18872 57.4877 6.18524 56.6211 6.43069C55.8482 6.6496 55.2205 7.02348 54.7378 7.55235C54.2668 8.07789 53.9677 8.71919 53.8406 9.47623C53.7135 10.2333 53.7809 11.0744 54.043 11.9995C54.2951 12.8895 54.6754 13.6293 55.1839 14.2189C55.6892 14.7969 56.2818 15.1919 56.9617 15.4041C57.65 15.6013 58.3806 15.5904 59.1535 15.3715C60.0318 15.1228 60.7216 14.6997 61.2228 14.1023C61.7358 13.5017 61.9965 12.8143 62.0049 12.0403L64.3411 11.3786C64.4293 12.315 64.2943 13.2007 63.9363 14.0358C63.59 14.8676 63.0542 15.5886 62.3289 16.1988C61.6153 16.8057 60.7492 17.2535 59.7304 17.542Z" fill="#212121"></path>
                                    <path fill-rule="evenodd" clip-rule="evenodd" d="M40.3437 26.6153L42.4451 25.4358L41.8902 22.2091L46.2364 19.7696L48.6858 21.9329L50.835 20.7266L40.1 11.4481L38.0144 12.6187L40.3437 26.6153ZM41.5141 20.1591L40.7425 15.6514C40.7063 15.4624 40.6647 15.2764 40.6177 15.0934C40.5755 14.8938 40.5352 14.7349 40.4969 14.6169C40.573 14.7277 40.6823 14.8478 40.8247 14.9772C40.9671 15.1066 41.1043 15.239 41.2361 15.3744L44.6822 18.3809L41.5141 20.1591Z" fill="#212121"></path>
                                    <path d="M23.4771 26.904L26.405 24.3173L33.8147 32.7042L35.566 31.157L28.1563 22.7701L31.0842 20.1833L29.6578 18.5689L22.0508 25.2896L23.4771 26.904Z" stroke="#212121" fill="#212121"></path>
                                    <path d="M22.0905 47.3672L23.4368 45.5021L15.7652 39.9643L27.1126 40.4099L28.459 38.5447L17.6381 30.7337L16.2918 32.5989L23.9746 38.1447L12.6267 37.6762L11.2696 39.5562L22.0905 47.3672Z" stroke="#212121"  fill="#212121"></path>
                                    <path fill-rule="evenodd" clip-rule="evenodd" d="M14.1666 48.7535C15.4224 49.2518 16.4357 49.9484 17.2067 50.8436C17.9663 51.7342 18.4381 52.7397 18.622 53.8602C18.806 54.9807 18.6623 56.1349 18.191 57.3228C17.7242 58.4994 17.0397 59.4324 16.1376 60.122C15.2355 60.8116 14.2026 61.2202 13.039 61.3478C11.8799 61.464 10.6725 61.273 9.41674 60.7748C8.14967 60.2721 7.13632 59.5754 6.37669 58.6848C5.60575 57.7897 5.12607 56.7875 4.93763 55.6783C4.75369 54.5578 4.89737 53.4037 5.36867 52.2158C5.83997 51.0279 6.52443 50.0948 7.42206 49.4165C8.32417 48.727 9.35703 48.3184 10.5206 48.1908C11.6842 48.0632 12.8996 48.2508 14.1666 48.7535ZM13.2644 51.0275C12.382 50.6774 11.5578 50.5271 10.7917 50.5767C10.0257 50.6263 9.35735 50.8587 8.78671 51.2739C8.20475 51.6846 7.76116 52.2746 7.45594 53.0439C7.1552 53.8019 7.07363 54.5355 7.21122 55.2448C7.34199 55.9383 7.6692 56.5657 8.19285 57.127C8.71651 57.6883 9.41955 58.144 10.302 58.4941C11.1844 58.8442 12.0143 58.9967 12.7916 58.9516C13.5577 58.902 14.226 58.6696 14.7967 58.2544C15.3718 57.8279 15.8097 57.2357 16.1105 56.4777C16.4157 55.7084 16.5029 54.977 16.3721 54.2835C16.2301 53.5855 15.8972 52.9559 15.3735 52.3946C14.8386 51.8288 14.1355 51.3731 13.2644 51.0275Z" fill="#212121"></path>
                                    <path d="M13.4453 75.6911C14.126 74.8109 14.5513 73.7253 14.7215 72.4342C14.8598 71.3844 14.7915 70.4117 14.5167 69.5161C14.2434 68.6085 13.7934 67.8311 13.1667 67.1838C12.5415 66.5245 11.7815 66.0499 10.8867 65.7601L10.5695 68.1674C11.277 68.4816 11.805 68.9931 12.1536 69.702C12.5037 70.3988 12.6191 71.1996 12.4999 72.1046C12.395 72.901 12.1157 73.5763 11.6622 74.1303C11.1981 74.6707 10.6008 75.0585 9.87003 75.2937C9.12723 75.5273 8.2973 75.5837 7.38023 75.4628C6.42696 75.3372 5.62788 75.0662 4.983 74.6498C4.33813 74.2334 3.8676 73.7049 3.57144 73.0643C3.27686 72.4117 3.18204 71.6872 3.28697 70.8908C3.40461 69.9979 3.72118 69.2723 4.23666 68.7141C4.74167 68.1423 5.39541 67.7926 6.19789 67.6651L6.51983 65.2216C5.54748 65.2408 4.68163 65.4766 3.92229 65.929C3.15087 66.3798 2.51725 66.996 2.02142 67.7778C1.52558 68.5595 1.20851 69.4753 1.07019 70.5251C0.901672 71.8042 1.03659 72.9697 1.47495 74.0219C1.91331 75.074 2.60955 75.9391 3.56368 76.6173C4.5194 77.2833 5.68507 77.707 7.06067 77.8882C8.44835 78.0711 9.6892 77.9706 10.7832 77.5869C11.8668 77.1895 12.7541 76.5576 13.4453 75.6911Z"  fill="#212121"></path>
                                    <path d="M144.85 82.3053C144.179 83.1932 143.766 84.2837 143.611 85.5767C143.485 86.628 143.564 87.5999 143.85 88.4922C144.133 89.3966 144.592 90.1688 145.226 90.8088C145.859 91.4609 146.625 91.9267 147.523 92.2061L147.812 89.7953C147.101 89.4893 146.567 88.9839 146.21 88.2791C145.852 87.5864 145.728 86.7869 145.836 85.8806C145.932 85.0831 146.204 84.4047 146.651 83.8454C147.109 83.2997 147.701 82.9051 148.429 82.6615C149.169 82.4193 149.999 82.3534 150.917 82.4636C151.872 82.5782 152.674 82.84 153.324 83.249C153.973 83.658 154.45 84.181 154.753 84.8181C155.055 85.4673 155.158 86.1906 155.063 86.9882C154.955 87.8824 154.647 88.6116 154.138 89.1757C153.64 89.7533 152.99 90.1105 152.189 90.2472L151.895 92.6943C152.867 92.6639 153.731 92.4181 154.485 91.957C155.251 91.4973 155.877 90.8738 156.364 90.0864C156.851 89.299 157.157 88.3797 157.284 87.3283C157.437 86.0474 157.289 84.8835 156.839 83.8364C156.388 82.7894 155.682 81.9324 154.72 81.2653C153.757 80.6103 152.586 80.2001 151.209 80.0347C149.819 79.8679 148.579 79.9826 147.49 80.3789C146.411 80.7888 145.531 81.4309 144.85 82.3053Z" fill="#212121"></path>
                                    <path fill-rule="evenodd" clip-rule="evenodd" d="M141.322 107.321C142.103 108.207 143.124 108.892 144.385 109.376C145.658 109.865 146.876 110.039 148.038 109.898C149.2 109.758 150.228 109.337 151.122 108.638C152.012 107.949 152.686 107.009 153.144 105.816C153.602 104.622 153.733 103.467 153.536 102.348C153.335 101.241 152.844 100.245 152.063 99.3583C151.294 98.4762 150.273 97.791 149 97.3025C147.739 96.8185 146.529 96.6411 145.371 96.7703C144.209 96.911 143.181 97.3311 142.287 98.0308C141.393 98.7305 140.719 99.6712 140.265 100.853C139.807 102.046 139.676 103.202 139.873 104.32C140.07 105.438 140.553 106.439 141.322 107.321ZM147.74 107.515C146.974 107.574 146.148 107.433 145.262 107.092C144.387 106.757 143.679 106.309 143.138 105.749C142.608 105.194 142.268 104.568 142.118 103.872C141.979 103.18 142.058 102.447 142.355 101.675C142.647 100.913 143.078 100.316 143.649 99.8832C144.215 99.4617 144.88 99.2218 145.646 99.1635C146.423 99.1097 147.254 99.2529 148.14 99.593C149.027 99.9332 149.735 100.381 150.265 100.936C150.795 101.492 151.129 102.115 151.268 102.807C151.413 103.515 151.34 104.25 151.048 105.011C150.751 105.784 150.314 106.379 149.737 106.796C149.171 107.217 148.505 107.457 147.74 107.515Z"  fill="#212121"></path>
                                    <path d="M135.087 112.771L136.413 110.891L147.319 118.583L145.982 120.477L134.63 120.133L142.373 125.595L141.047 127.475L130.141 119.783L131.467 117.903L142.819 118.224L135.087 112.771Z"  fill="#212121"></path>
                                    <path d="M132.393 133.895L135.293 131.276L136.736 132.875L129.203 139.678L127.759 138.079L130.659 135.461L123.158 127.155L124.892 125.589L132.393 133.895Z"  fill="#212121"></path>
                                    <path fill-rule="evenodd" clip-rule="evenodd" d="M116.243 132.986L118.331 131.784L120.815 145.754L118.743 146.947L107.905 137.788L110.041 136.558L112.514 138.694L116.833 136.207L116.243 132.986ZM118.053 142.751L117.232 138.252L114.084 140.066L117.563 143.034C117.696 143.168 117.835 143.299 117.979 143.426C118.123 143.554 118.233 143.673 118.311 143.783C118.271 143.666 118.229 143.507 118.184 143.308C118.136 143.126 118.092 142.94 118.053 142.751Z" fill="#212121"></path>
                                    <path d="M102.474 140.887C101.394 140.623 100.229 140.675 98.98 141.044C97.9645 141.344 97.1035 141.802 96.3968 142.417C95.6785 143.035 95.1509 143.762 94.8141 144.598C94.4656 145.437 94.3407 146.324 94.4395 147.26L96.7681 146.572C96.7677 145.798 97.0206 145.107 97.5267 144.501C98.0211 143.898 98.706 143.467 99.5814 143.208C100.352 142.981 101.082 142.961 101.773 143.151C102.455 143.355 103.052 143.743 103.564 144.316C104.079 144.899 104.468 145.635 104.73 146.522C105.002 147.444 105.079 148.284 104.961 149.043C104.842 149.801 104.551 150.446 104.086 150.977C103.609 151.511 102.986 151.892 102.215 152.12C101.351 152.375 100.56 152.38 99.8405 152.136C99.1128 151.907 98.5277 151.452 98.0851 150.77L95.7216 151.469C96.1341 152.35 96.7014 153.045 97.4232 153.555C98.1486 154.077 98.9691 154.405 99.8848 154.541C100.801 154.676 101.766 154.594 102.782 154.294C104.019 153.928 105.029 153.331 105.812 152.503C106.596 151.675 107.103 150.688 107.335 149.54C107.556 148.396 107.469 147.159 107.076 145.829C106.679 144.486 106.083 143.393 105.288 142.55C104.485 141.721 103.547 141.167 102.474 140.887Z"  fill="#212121"></path>
                                    <path d="M90.9659 154.922L87.0674 155.178L86.3339 144.011L84.0021 144.164L84.7355 155.331L80.8371 155.587L80.9782 157.737L91.107 157.072L90.9659 154.922Z"  fill="#212121"></path>
                                    <path d="M56.816 154.51L57.3558 152.425L63.0822 153.907L63.9925 150.39L59.1851 149.146L59.7112 147.113L64.5185 148.357L65.8862 143.073L68.1485 143.658L64.8048 156.578L56.816 154.51Z"  fill="#212121"></path>
                                    <path fill-rule="evenodd" clip-rule="evenodd" d="M41.7794 140.713C42.4055 139.516 43.2038 138.581 44.1743 137.907C45.1391 137.244 46.1883 136.88 47.3218 136.813C48.4554 136.747 49.5884 137.01 50.7208 137.602C51.8424 138.189 52.6992 138.967 53.2912 139.936C53.8832 140.904 54.1821 141.974 54.188 143.145C54.183 144.31 53.8675 145.491 53.2413 146.688C52.6095 147.896 51.8112 148.831 50.8464 149.494C49.876 150.168 48.8294 150.54 47.7066 150.612C46.573 150.679 45.4401 150.416 44.3076 149.824C43.1752 149.231 42.3184 148.453 41.7372 147.49C41.1452 146.521 40.8463 145.451 40.8404 144.281C40.8346 143.11 41.1476 141.921 41.7794 140.713ZM43.9471 141.847C43.5071 142.688 43.272 143.492 43.2416 144.259C43.2113 145.026 43.3729 145.715 43.7265 146.326C44.0744 146.948 44.6151 147.45 45.3484 147.834C46.071 148.212 46.7922 148.369 47.5119 148.306C48.2153 148.248 48.8733 147.988 49.486 147.526C50.0987 147.063 50.6251 146.411 51.0651 145.57C51.5051 144.729 51.7431 143.919 51.7791 143.142C51.8094 142.375 51.6478 141.686 51.2942 141.075C50.9299 140.459 50.3864 139.961 49.6638 139.583C48.9304 139.2 48.2121 139.037 47.5088 139.095C46.7998 139.164 46.139 139.429 45.5262 139.892C44.9079 140.365 44.3815 141.017 43.9471 141.847Z" fill="#212121"></path>
                                    <path fill-rule="evenodd" clip-rule="evenodd" d="M41.2345 132.555L39.4776 131.014L36.1913 134.761L34.0364 132.871L35.6207 127.632L33.6991 125.946L31.9957 131.737C31.1842 131.463 30.4229 131.426 29.7116 131.628C28.9832 131.831 28.3261 132.267 27.7402 132.935C26.8735 133.923 26.5196 134.972 26.6787 136.083C26.8285 137.186 27.4708 138.235 28.6054 139.23L32.4349 142.589L41.2345 132.555ZM34.831 136.312L32.0503 139.483L29.9777 137.665C29.4196 137.176 29.1053 136.657 29.0349 136.11C28.9566 135.572 29.1381 135.051 29.5794 134.548C30.0208 134.044 30.5215 133.787 31.0814 133.777C31.6413 133.766 32.2003 134.005 32.7585 134.495L34.831 136.312Z" fill="#212121"></path>
                                    <path d="M28.937 121.087L30.2146 122.956L19.1974 130.487L17.9198 128.618L24.2599 119.065L13.0568 121.505L11.7586 119.606L22.7758 112.074L24.0534 113.943L19.2758 117.209C18.894 117.47 18.569 117.685 18.3009 117.853C18.0328 118.022 17.7948 118.17 17.587 118.297C17.3792 118.425 17.1645 118.542 16.9429 118.649L25.8976 116.641L27.1134 118.419L21.9962 126.009C22.2934 125.732 22.6948 125.413 23.2004 125.053C23.6991 124.682 24.295 124.26 24.9883 123.786L28.937 121.087Z" fill="#212121"></path>
                                    <path d="M102.327 4.5021L94.3702 2.31354L90.8307 15.1811L93.0839 15.8009L94.5316 10.5377L99.3196 11.8547L99.8764 9.83038L95.0885 8.51337L96.052 5.01043L101.755 6.57922L102.327 4.5021Z" fill="#212121"></path>
                                    <path fill-rule="evenodd" clip-rule="evenodd" d="M114.441 21.0639C115.419 20.4011 116.228 19.4746 116.867 18.2845C117.512 17.0837 117.839 15.898 117.846 14.7275C117.853 13.5569 117.566 12.4839 116.985 11.5085C116.414 10.5388 115.566 9.75148 114.44 9.14665C113.314 8.54181 112.185 8.2663 111.05 8.32011C109.927 8.37968 108.876 8.74088 107.898 9.40372C106.926 10.0558 106.118 10.9823 105.472 12.1831C104.833 13.3732 104.504 14.5507 104.486 15.7154C104.479 16.886 104.766 17.959 105.348 18.9345C105.929 19.9099 106.777 20.6972 107.892 21.2963C109.018 21.9011 110.148 22.1766 111.282 22.1228C112.416 22.069 113.469 21.716 114.441 21.0639ZM115.445 14.7223C115.406 15.4889 115.162 16.2904 114.712 17.1267C114.269 17.9522 113.735 18.5982 113.112 19.0645C112.494 19.5201 111.83 19.7783 111.12 19.8392C110.416 19.8893 109.7 19.7185 108.971 19.3268C108.252 18.9408 107.715 18.4377 107.357 17.8173C107.01 17.2027 106.856 16.512 106.895 15.7454C106.94 14.968 107.187 14.1611 107.636 13.3249C108.085 12.4886 108.619 11.8426 109.237 11.387C109.855 10.9314 110.515 10.6786 111.219 10.6285C111.94 10.5734 112.659 10.7388 113.377 11.1248C114.107 11.5165 114.642 12.025 114.983 12.6504C115.329 13.265 115.483 13.9556 115.445 14.7223Z" fill="#212121"></path>
                                    <path fill-rule="evenodd" clip-rule="evenodd" d="M119.139 27.9736L117.399 26.4137L126.308 16.4769L130.101 19.877C131.224 20.8844 131.855 21.9403 131.993 23.0446C132.14 24.1571 131.774 25.2027 130.897 26.1814C130.304 26.843 129.642 27.2712 128.911 27.4662C128.198 27.6603 127.437 27.6156 126.629 27.3322L124.862 33.1042L122.959 31.3981L124.601 26.1759L122.466 24.2626L119.139 27.9736ZM126.659 19.5864L123.843 22.7265L125.896 24.5667C126.449 25.0623 127.005 25.3078 127.565 25.3031C128.125 25.2984 128.629 25.0468 129.076 24.5484C129.522 24.0499 129.71 23.5312 129.637 22.9922C129.573 22.4441 129.264 21.9222 128.711 21.4266L126.659 19.5864Z" fill="#212121"></path>
                                    <path d="M128.472 36.2443L129.729 38.127L133.707 35.4712C134.406 35.0049 135.006 34.5893 135.509 34.2244C136.019 33.8696 136.423 33.5554 136.724 33.2818L131.523 40.8146L132.719 42.6062L141.696 40.6965C141.473 40.8013 141.257 40.9162 141.048 41.0412C140.839 41.1663 140.599 41.3116 140.329 41.4771C140.059 41.6427 139.732 41.8539 139.347 42.1107L134.534 45.3241L135.791 47.2069L146.89 39.7968L145.613 37.8837L134.384 40.2L140.828 30.717L139.571 28.8342L128.472 36.2443Z" fill="#212121"></path>
                                    <path d="M149.151 60.6197L149.446 59.3215L150.63 59.611L150.387 60.8652C150.315 61.2006 150.235 61.4741 150.147 61.6856C150.073 61.8957 149.979 62.1081 149.867 62.3227C150.084 62.2461 150.307 62.1749 150.538 62.1092C150.77 62.0559 151.047 62.0097 151.369 61.9706L152.687 61.8104L152.834 63.0172L151.516 63.1774C151.194 63.2165 150.907 63.2326 150.655 63.2255C150.417 63.2293 150.189 63.2193 149.973 63.1953C150.119 63.366 150.261 63.5497 150.398 63.7466C150.535 63.9435 150.678 64.1899 150.827 64.4858L151.382 65.6431L150.285 66.2286L149.686 65.0201C149.552 64.7475 149.446 64.4904 149.366 64.2488C149.299 64.0058 149.234 63.7813 149.171 63.5754C149.034 63.793 148.895 63.9858 148.752 64.1539C148.61 64.3344 148.419 64.5209 148.179 64.7134L147.155 65.5914L146.346 64.6723L147.315 63.801C147.563 63.5698 147.785 63.3858 147.982 63.2488C148.192 63.1103 148.391 62.9919 148.58 62.8936C148.337 62.8603 148.097 62.7953 147.859 62.6986C147.623 62.6142 147.383 62.5051 147.141 62.3713L145.985 61.7015L146.553 60.634L147.757 61.2413C148.04 61.3954 148.271 61.5431 148.452 61.6845C148.632 61.8258 148.814 61.9796 148.998 62.1457C149.003 61.8812 149.01 61.6292 149.019 61.3895C149.041 61.1606 149.085 60.904 149.151 60.6197Z" fill="#212121"></path>
                                    <path d="M9.4457 93.3215L9.15124 94.6197C9.08531 94.9041 9.04112 95.1606 9.01869 95.3895C9.01013 95.6292 9.00308 95.8812 8.99754 96.1457C8.81406 95.9796 8.63208 95.8258 8.45161 95.6845C8.27114 95.5431 8.03965 95.3954 7.75715 95.2413L6.55287 94.634L5.98547 95.7015L7.14082 96.3713C7.38318 96.5051 7.62252 96.6142 7.85886 96.6986C8.09671 96.7953 8.33698 96.8603 8.57969 96.8936C8.39066 96.9919 8.19152 97.1103 7.98225 97.2488C7.78536 97.3858 7.56279 97.5698 7.31454 97.801L6.34646 98.6723L7.15527 99.5914L8.17906 98.7134C8.41944 98.5209 8.61032 98.3344 8.75169 98.1539C8.89455 97.9858 9.03441 97.793 9.17126 97.5754C9.23396 97.7813 9.29893 98.0058 9.36614 98.2488C9.44574 98.4904 9.55235 98.7475 9.68597 99.0201L10.285 100.229L11.382 99.6431L10.8269 98.4858C10.6779 98.1899 10.5349 97.9435 10.3979 97.7466C10.2609 97.5497 10.1193 97.366 9.97294 97.1953C10.1894 97.2193 10.4167 97.2293 10.6549 97.2255C10.907 97.2326 11.1939 97.2165 11.5158 97.1774L12.834 97.0172L12.6874 95.8104L11.3691 95.9706C11.0473 96.0097 10.7703 96.0559 10.5381 96.1092C10.3074 96.1749 10.0837 96.2461 9.86689 96.3227C9.97899 96.1081 10.0725 95.8957 10.1475 95.6856C10.2348 95.4741 10.3146 95.2006 10.3869 94.8652L10.6302 93.611L9.4457 93.3215Z" fill="#212121"></path>
                                </svg>